<mxfile host="app.diagrams.net" agent="Mozilla/5.0 (Windows NT 10.0; Win64; x64) AppleWebKit/537.36 (KHTML, like Gecko) Chrome/135.0.0.0 Safari/537.36" version="26.2.13">
  <diagram name="PÃ¡gina-1" id="JgVFwVdhwb-0qj7gp9jI">
    <mxGraphModel dx="1190" dy="1788" grid="1" gridSize="10" guides="1" tooltips="1" connect="1" arrows="1" fold="1" page="1" pageScale="1" pageWidth="827" pageHeight="1169" math="0" shadow="0">
      <root>
        <mxCell id="0" />
        <mxCell id="1" parent="0" />
        <mxCell id="2_iJs51o2XsMP_k-3k2y-2" value="Admin" style="shape=umlActor;verticalLabelPosition=bottom;verticalAlign=top;html=1;" parent="1" vertex="1">
          <mxGeometry x="70" y="519" width="30" height="60" as="geometry" />
        </mxCell>
        <mxCell id="2_iJs51o2XsMP_k-3k2y-3" value="Do Login" style="ellipse;whiteSpace=wrap;html=1;" parent="1" vertex="1">
          <mxGeometry x="245" y="-130" width="90" height="30" as="geometry" />
        </mxCell>
        <mxCell id="2_iJs51o2XsMP_k-3k2y-4" value="Submit vacation request to admin" style="ellipse;whiteSpace=wrap;html=1;" parent="1" vertex="1">
          <mxGeometry x="228.5" y="130" width="130" height="40" as="geometry" />
        </mxCell>
        <mxCell id="2_iJs51o2XsMP_k-3k2y-5" value="Edit Vacations&lt;span style=&quot;color: rgba(0, 0, 0, 0); font-family: monospace; font-size: 0px; text-align: start; text-wrap-mode: nowrap;&quot;&gt;%3CmxGraphModel%3E%3Croot%3E%3CmxCell%20id%3D%220%22%2F%3E%3CmxCell%20id%3D%221%22%20parent%3D%220%22%2F%3E%3CmxCell%20id%3D%222%22%20value%3D%22Do%20Register%22%20style%3D%22ellipse%3BwhiteSpace%3Dwrap%3Bhtml%3D1%3B%22%20vertex%3D%221%22%20parent%3D%221%22%3E%3CmxGeometry%20x%3D%22250%22%20y%3D%2270%22%20width%3D%2290%22%20height%3D%2230%22%20as%3D%22geometry%22%2F%3E%3C%2FmxCell%3E%3C%2Froot%3E%3C%2FmxGraphModel%3E&lt;/span&gt;" style="ellipse;whiteSpace=wrap;html=1;" parent="1" vertex="1">
          <mxGeometry x="248.5" y="178" width="90" height="30" as="geometry" />
        </mxCell>
        <mxCell id="2_iJs51o2XsMP_k-3k2y-6" value="Delete Vacations" style="ellipse;whiteSpace=wrap;html=1;" parent="1" vertex="1">
          <mxGeometry x="238.5" y="218" width="110" height="30" as="geometry" />
        </mxCell>
        <mxCell id="2_iJs51o2XsMP_k-3k2y-7" value="View Vacations" style="ellipse;whiteSpace=wrap;html=1;" parent="1" vertex="1">
          <mxGeometry x="243.5" y="258" width="100" height="30" as="geometry" />
        </mxCell>
        <mxCell id="2_iJs51o2XsMP_k-3k2y-8" value="Do Log Out" style="ellipse;whiteSpace=wrap;html=1;" parent="1" vertex="1">
          <mxGeometry x="245" y="-90" width="90" height="30" as="geometry" />
        </mxCell>
        <mxCell id="2_iJs51o2XsMP_k-3k2y-9" value="View vacation request status" style="ellipse;whiteSpace=wrap;html=1;" parent="1" vertex="1">
          <mxGeometry x="248.5" y="300" width="180" height="30" as="geometry" />
        </mxCell>
        <mxCell id="2_iJs51o2XsMP_k-3k2y-10" value="Edit Profile" style="ellipse;whiteSpace=wrap;html=1;" parent="1" vertex="1">
          <mxGeometry x="239" y="-210" width="90" height="30" as="geometry" />
        </mxCell>
        <mxCell id="2_iJs51o2XsMP_k-3k2y-11" value="Change Password" style="ellipse;whiteSpace=wrap;html=1;" parent="1" vertex="1">
          <mxGeometry x="235" y="-42" width="110" height="30" as="geometry" />
        </mxCell>
        <mxCell id="2_iJs51o2XsMP_k-3k2y-12" value="" style="endArrow=open;endFill=1;endSize=12;html=1;rounded=0;" parent="1" edge="1">
          <mxGeometry width="160" relative="1" as="geometry">
            <mxPoint x="85" y="510" as="sourcePoint" />
            <mxPoint x="84.58" y="180" as="targetPoint" />
          </mxGeometry>
        </mxCell>
        <mxCell id="2_iJs51o2XsMP_k-3k2y-13" value="" style="endArrow=none;html=1;rounded=0;entryX=0;entryY=0.5;entryDx=0;entryDy=0;" parent="1" target="2_iJs51o2XsMP_k-3k2y-3" edge="1">
          <mxGeometry width="50" height="50" relative="1" as="geometry">
            <mxPoint x="110" y="120" as="sourcePoint" />
            <mxPoint x="225" y="-20" as="targetPoint" />
          </mxGeometry>
        </mxCell>
        <mxCell id="2_iJs51o2XsMP_k-3k2y-14" value="" style="endArrow=none;html=1;rounded=0;entryX=0;entryY=0.5;entryDx=0;entryDy=0;" parent="1" target="2_iJs51o2XsMP_k-3k2y-4" edge="1">
          <mxGeometry width="50" height="50" relative="1" as="geometry">
            <mxPoint x="110" y="120" as="sourcePoint" />
            <mxPoint x="260" y="55" as="targetPoint" />
          </mxGeometry>
        </mxCell>
        <mxCell id="2_iJs51o2XsMP_k-3k2y-15" value="" style="endArrow=none;html=1;rounded=0;entryX=0;entryY=0.5;entryDx=0;entryDy=0;" parent="1" target="2_iJs51o2XsMP_k-3k2y-6" edge="1">
          <mxGeometry width="50" height="50" relative="1" as="geometry">
            <mxPoint x="110" y="120" as="sourcePoint" />
            <mxPoint x="240" y="155" as="targetPoint" />
          </mxGeometry>
        </mxCell>
        <mxCell id="2_iJs51o2XsMP_k-3k2y-16" value="Do Register" style="ellipse;whiteSpace=wrap;html=1;" parent="1" vertex="1">
          <mxGeometry x="239" y="-170" width="90" height="30" as="geometry" />
        </mxCell>
        <mxCell id="2_iJs51o2XsMP_k-3k2y-17" value="" style="endArrow=none;html=1;rounded=0;entryX=0;entryY=0.5;entryDx=0;entryDy=0;" parent="1" target="2_iJs51o2XsMP_k-3k2y-16" edge="1">
          <mxGeometry width="50" height="50" relative="1" as="geometry">
            <mxPoint x="110" y="120" as="sourcePoint" />
            <mxPoint x="265" y="35" as="targetPoint" />
          </mxGeometry>
        </mxCell>
        <mxCell id="2_iJs51o2XsMP_k-3k2y-18" value="" style="endArrow=none;html=1;rounded=0;entryX=0;entryY=0.5;entryDx=0;entryDy=0;" parent="1" target="2_iJs51o2XsMP_k-3k2y-5" edge="1">
          <mxGeometry width="50" height="50" relative="1" as="geometry">
            <mxPoint x="110" y="120" as="sourcePoint" />
            <mxPoint x="265" y="149" as="targetPoint" />
          </mxGeometry>
        </mxCell>
        <mxCell id="2_iJs51o2XsMP_k-3k2y-19" value="" style="endArrow=none;html=1;rounded=0;entryX=0;entryY=0.5;entryDx=0;entryDy=0;" parent="1" target="2_iJs51o2XsMP_k-3k2y-7" edge="1">
          <mxGeometry width="50" height="50" relative="1" as="geometry">
            <mxPoint x="110" y="120" as="sourcePoint" />
            <mxPoint x="245" y="235" as="targetPoint" />
          </mxGeometry>
        </mxCell>
        <mxCell id="2_iJs51o2XsMP_k-3k2y-20" value="" style="endArrow=none;html=1;rounded=0;entryX=0;entryY=0.5;entryDx=0;entryDy=0;" parent="1" target="2_iJs51o2XsMP_k-3k2y-9" edge="1">
          <mxGeometry width="50" height="50" relative="1" as="geometry">
            <mxPoint x="110" y="120" as="sourcePoint" />
            <mxPoint x="180" y="325" as="targetPoint" />
          </mxGeometry>
        </mxCell>
        <mxCell id="2_iJs51o2XsMP_k-3k2y-21" value="" style="endArrow=none;html=1;rounded=0;entryX=0;entryY=0.5;entryDx=0;entryDy=0;" parent="1" target="2_iJs51o2XsMP_k-3k2y-10" edge="1">
          <mxGeometry width="50" height="50" relative="1" as="geometry">
            <mxPoint x="110" y="120" as="sourcePoint" />
            <mxPoint x="220" y="330" as="targetPoint" />
          </mxGeometry>
        </mxCell>
        <mxCell id="2_iJs51o2XsMP_k-3k2y-22" value="" style="endArrow=none;html=1;rounded=0;entryX=0;entryY=0.5;entryDx=0;entryDy=0;" parent="1" target="2_iJs51o2XsMP_k-3k2y-11" edge="1">
          <mxGeometry width="50" height="50" relative="1" as="geometry">
            <mxPoint x="110" y="120" as="sourcePoint" />
            <mxPoint x="220" y="360" as="targetPoint" />
          </mxGeometry>
        </mxCell>
        <mxCell id="2_iJs51o2XsMP_k-3k2y-34" value="User" style="shape=umlActor;verticalLabelPosition=bottom;verticalAlign=top;html=1;outlineConnect=0;" parent="1" vertex="1">
          <mxGeometry x="70" y="90" width="30" height="60" as="geometry" />
        </mxCell>
        <mxCell id="2_iJs51o2XsMP_k-3k2y-35" value="Add User" style="ellipse;whiteSpace=wrap;html=1;" parent="1" vertex="1">
          <mxGeometry x="245" y="460" width="90" height="30" as="geometry" />
        </mxCell>
        <mxCell id="2_iJs51o2XsMP_k-3k2y-36" value="Delete user&lt;span style=&quot;color: rgba(0, 0, 0, 0); font-family: monospace; font-size: 0px; text-align: start; text-wrap-mode: nowrap;&quot;&gt;%3CmxGraphModel%3E%3Croot%3E%3CmxCell%20id%3D%220%22%2F%3E%3CmxCell%20id%3D%221%22%20parent%3D%220%22%2F%3E%3CmxCell%20id%3D%222%22%20value%3D%22Add%20User%22%20style%3D%22ellipse%3BwhiteSpace%3Dwrap%3Bhtml%3D1%3B%22%20vertex%3D%221%22%20parent%3D%221%22%3E%3CmxGeometry%20x%3D%22245%22%20y%3D%22470%22%20width%3D%2290%22%20height%3D%2230%22%20as%3D%22geometry%22%2F%3E%3C%2FmxCell%3E%3C%2Froot%3E%3C%2FmxGraphModel%3E&lt;/span&gt;" style="ellipse;whiteSpace=wrap;html=1;" parent="1" vertex="1">
          <mxGeometry x="245" y="505" width="90" height="30" as="geometry" />
        </mxCell>
        <mxCell id="2_iJs51o2XsMP_k-3k2y-37" value="View Users" style="ellipse;whiteSpace=wrap;html=1;" parent="1" vertex="1">
          <mxGeometry x="245" y="549" width="90" height="30" as="geometry" />
        </mxCell>
        <mxCell id="2_iJs51o2XsMP_k-3k2y-38" value="Edit Users" style="ellipse;whiteSpace=wrap;html=1;" parent="1" vertex="1">
          <mxGeometry x="245" y="595" width="90" height="30" as="geometry" />
        </mxCell>
        <mxCell id="2_iJs51o2XsMP_k-3k2y-39" value="Approve users&#39; vacation requests" style="ellipse;whiteSpace=wrap;html=1;" parent="1" vertex="1">
          <mxGeometry x="245" y="645" width="125" height="40" as="geometry" />
        </mxCell>
        <mxCell id="2_iJs51o2XsMP_k-3k2y-40" value="Reject users&#39; vacation requests" style="ellipse;whiteSpace=wrap;html=1;" parent="1" vertex="1">
          <mxGeometry x="245" y="705" width="165" height="40" as="geometry" />
        </mxCell>
        <mxCell id="2_iJs51o2XsMP_k-3k2y-42" value="View vacation requests" style="ellipse;whiteSpace=wrap;html=1;" parent="1" vertex="1">
          <mxGeometry x="245" y="765" width="140" height="30" as="geometry" />
        </mxCell>
        <mxCell id="2_iJs51o2XsMP_k-3k2y-43" value="Search Users" style="ellipse;whiteSpace=wrap;html=1;" parent="1" vertex="1">
          <mxGeometry x="245" y="410" width="100" height="30" as="geometry" />
        </mxCell>
        <mxCell id="2_iJs51o2XsMP_k-3k2y-44" value="" style="endArrow=none;html=1;rounded=0;entryX=0;entryY=0.5;entryDx=0;entryDy=0;" parent="1" target="2_iJs51o2XsMP_k-3k2y-35" edge="1">
          <mxGeometry width="50" height="50" relative="1" as="geometry">
            <mxPoint x="110" y="555" as="sourcePoint" />
            <mxPoint x="210" y="485" as="targetPoint" />
          </mxGeometry>
        </mxCell>
        <mxCell id="2_iJs51o2XsMP_k-3k2y-45" value="" style="endArrow=none;html=1;rounded=0;entryX=0;entryY=0.5;entryDx=0;entryDy=0;" parent="1" target="2_iJs51o2XsMP_k-3k2y-36" edge="1">
          <mxGeometry width="50" height="50" relative="1" as="geometry">
            <mxPoint x="110" y="555" as="sourcePoint" />
            <mxPoint x="255" y="485" as="targetPoint" />
          </mxGeometry>
        </mxCell>
        <mxCell id="2_iJs51o2XsMP_k-3k2y-46" value="" style="endArrow=none;html=1;rounded=0;entryX=0;entryY=0.5;entryDx=0;entryDy=0;" parent="1" target="2_iJs51o2XsMP_k-3k2y-37" edge="1">
          <mxGeometry width="50" height="50" relative="1" as="geometry">
            <mxPoint x="110" y="555" as="sourcePoint" />
            <mxPoint x="255" y="530" as="targetPoint" />
          </mxGeometry>
        </mxCell>
        <mxCell id="2_iJs51o2XsMP_k-3k2y-47" value="" style="endArrow=none;html=1;rounded=0;entryX=0;entryY=0.5;entryDx=0;entryDy=0;" parent="1" target="2_iJs51o2XsMP_k-3k2y-38" edge="1">
          <mxGeometry width="50" height="50" relative="1" as="geometry">
            <mxPoint x="110" y="555" as="sourcePoint" />
            <mxPoint x="230" y="614.5" as="targetPoint" />
          </mxGeometry>
        </mxCell>
        <mxCell id="2_iJs51o2XsMP_k-3k2y-48" value="" style="endArrow=none;html=1;rounded=0;entryX=0;entryY=0.5;entryDx=0;entryDy=0;" parent="1" target="2_iJs51o2XsMP_k-3k2y-39" edge="1">
          <mxGeometry width="50" height="50" relative="1" as="geometry">
            <mxPoint x="110" y="555" as="sourcePoint" />
            <mxPoint x="230" y="670" as="targetPoint" />
          </mxGeometry>
        </mxCell>
        <mxCell id="2_iJs51o2XsMP_k-3k2y-49" value="" style="endArrow=none;html=1;rounded=0;entryX=0;entryY=0.5;entryDx=0;entryDy=0;" parent="1" target="2_iJs51o2XsMP_k-3k2y-40" edge="1">
          <mxGeometry width="50" height="50" relative="1" as="geometry">
            <mxPoint x="110" y="555" as="sourcePoint" />
            <mxPoint x="215" y="735" as="targetPoint" />
          </mxGeometry>
        </mxCell>
        <mxCell id="2_iJs51o2XsMP_k-3k2y-50" value="" style="endArrow=none;html=1;rounded=0;entryX=0;entryY=0.5;entryDx=0;entryDy=0;" parent="1" target="2_iJs51o2XsMP_k-3k2y-42" edge="1">
          <mxGeometry width="50" height="50" relative="1" as="geometry">
            <mxPoint x="110" y="555" as="sourcePoint" />
            <mxPoint x="230" y="785" as="targetPoint" />
          </mxGeometry>
        </mxCell>
        <mxCell id="2_iJs51o2XsMP_k-3k2y-51" value="" style="endArrow=none;html=1;rounded=0;entryX=0;entryY=0.5;entryDx=0;entryDy=0;" parent="1" target="2_iJs51o2XsMP_k-3k2y-43" edge="1">
          <mxGeometry width="50" height="50" relative="1" as="geometry">
            <mxPoint x="110" y="555" as="sourcePoint" />
            <mxPoint x="230" y="830" as="targetPoint" />
          </mxGeometry>
        </mxCell>
        <mxCell id="izJU0LNRKLPGnyAfgjD8-1" value="" style="html=1;verticalAlign=bottom;endArrow=open;dashed=1;endSize=8;curved=0;rounded=0;exitX=1;exitY=0.5;exitDx=0;exitDy=0;entryX=0.655;entryY=-0.045;entryDx=0;entryDy=0;entryPerimeter=0;" edge="1" parent="1" source="2_iJs51o2XsMP_k-3k2y-10" target="izJU0LNRKLPGnyAfgjD8-2">
          <mxGeometry relative="1" as="geometry">
            <mxPoint x="345" y="-95.14" as="sourcePoint" />
            <mxPoint x="505" y="-230" as="targetPoint" />
          </mxGeometry>
        </mxCell>
        <mxCell id="izJU0LNRKLPGnyAfgjD8-2" value="Check User Existence" style="ellipse;whiteSpace=wrap;html=1;" vertex="1" parent="1">
          <mxGeometry x="415" y="-70" width="115" height="30" as="geometry" />
        </mxCell>
        <mxCell id="izJU0LNRKLPGnyAfgjD8-3" value="" style="html=1;verticalAlign=bottom;endArrow=open;dashed=1;endSize=8;curved=0;rounded=0;exitX=1;exitY=0.5;exitDx=0;exitDy=0;entryX=0.348;entryY=0;entryDx=0;entryDy=0;entryPerimeter=0;" edge="1" parent="1" source="2_iJs51o2XsMP_k-3k2y-16" target="izJU0LNRKLPGnyAfgjD8-2">
          <mxGeometry relative="1" as="geometry">
            <mxPoint x="365" y="-10" as="sourcePoint" />
            <mxPoint x="475" y="-73" as="targetPoint" />
          </mxGeometry>
        </mxCell>
        <mxCell id="izJU0LNRKLPGnyAfgjD8-5" value="&amp;lt;&amp;lt; include &amp;gt;&amp;gt;" style="text;html=1;align=center;verticalAlign=middle;resizable=0;points=[];autosize=1;strokeColor=none;fillColor=none;rotation=20;fontSize=10;" vertex="1" parent="1">
          <mxGeometry x="345" y="-12" width="80" height="30" as="geometry" />
        </mxCell>
        <mxCell id="izJU0LNRKLPGnyAfgjD8-6" value="Check password is different and not empty" style="ellipse;whiteSpace=wrap;html=1;" vertex="1" parent="1">
          <mxGeometry x="415" y="36" width="135" height="54" as="geometry" />
        </mxCell>
        <mxCell id="izJU0LNRKLPGnyAfgjD8-7" value="" style="html=1;verticalAlign=bottom;endArrow=open;dashed=1;endSize=8;curved=0;rounded=0;entryX=0;entryY=0.5;entryDx=0;entryDy=0;exitX=1;exitY=1;exitDx=0;exitDy=0;" edge="1" parent="1" source="2_iJs51o2XsMP_k-3k2y-11" target="izJU0LNRKLPGnyAfgjD8-6">
          <mxGeometry relative="1" as="geometry">
            <mxPoint x="354" y="-20" as="sourcePoint" />
            <mxPoint x="424" y="-20" as="targetPoint" />
          </mxGeometry>
        </mxCell>
        <mxCell id="izJU0LNRKLPGnyAfgjD8-8" value="&amp;lt;&amp;lt; include &amp;gt;&amp;gt;" style="text;html=1;align=center;verticalAlign=middle;resizable=0;points=[];autosize=1;strokeColor=none;fillColor=none;rotation=30;fontSize=10;" vertex="1" parent="1">
          <mxGeometry x="360.5" y="481" width="80" height="30" as="geometry" />
        </mxCell>
        <mxCell id="izJU0LNRKLPGnyAfgjD8-9" value="Check password is valid" style="ellipse;whiteSpace=wrap;html=1;" vertex="1" parent="1">
          <mxGeometry x="437.5" y="-12" width="135" height="42" as="geometry" />
        </mxCell>
        <mxCell id="izJU0LNRKLPGnyAfgjD8-11" value="" style="html=1;verticalAlign=bottom;endArrow=open;dashed=1;endSize=8;curved=0;rounded=0;entryX=0;entryY=0.5;entryDx=0;entryDy=0;exitX=0.967;exitY=0.733;exitDx=0;exitDy=0;exitPerimeter=0;" edge="1" parent="1" source="2_iJs51o2XsMP_k-3k2y-11" target="izJU0LNRKLPGnyAfgjD8-9">
          <mxGeometry relative="1" as="geometry">
            <mxPoint x="351" y="-54" as="sourcePoint" />
            <mxPoint x="415" y="-20" as="targetPoint" />
          </mxGeometry>
        </mxCell>
        <mxCell id="izJU0LNRKLPGnyAfgjD8-12" value="&amp;lt;&amp;lt; include &amp;gt;&amp;gt;" style="text;html=1;align=center;verticalAlign=middle;resizable=0;points=[];autosize=1;strokeColor=none;fillColor=none;rotation=45;fontSize=10;" vertex="1" parent="1">
          <mxGeometry x="325" y="18" width="80" height="30" as="geometry" />
        </mxCell>
        <mxCell id="izJU0LNRKLPGnyAfgjD8-13" value="Check Vacation Existence" style="ellipse;whiteSpace=wrap;html=1;" vertex="1" parent="1">
          <mxGeometry x="438.5" y="180" width="120" height="40" as="geometry" />
        </mxCell>
        <mxCell id="izJU0LNRKLPGnyAfgjD8-14" value="" style="html=1;verticalAlign=bottom;endArrow=open;dashed=1;endSize=8;curved=0;rounded=0;entryX=0.028;entryY=0.692;entryDx=0;entryDy=0;exitX=1;exitY=0.5;exitDx=0;exitDy=0;entryPerimeter=0;" edge="1" parent="1" source="2_iJs51o2XsMP_k-3k2y-6" target="izJU0LNRKLPGnyAfgjD8-13">
          <mxGeometry relative="1" as="geometry">
            <mxPoint x="362.5" y="232.57999999999998" as="sourcePoint" />
            <mxPoint x="432.5" y="232.57999999999998" as="targetPoint" />
          </mxGeometry>
        </mxCell>
        <mxCell id="izJU0LNRKLPGnyAfgjD8-16" value="&amp;lt;&amp;lt; include &amp;gt;&amp;gt;" style="text;html=1;align=center;verticalAlign=middle;resizable=0;points=[];autosize=1;strokeColor=none;fillColor=none;fontSize=10;rotation=-15;" vertex="1" parent="1">
          <mxGeometry x="343.5" y="200" width="80" height="30" as="geometry" />
        </mxCell>
        <mxCell id="izJU0LNRKLPGnyAfgjD8-17" value="" style="html=1;verticalAlign=bottom;endArrow=open;dashed=1;endSize=8;curved=0;rounded=0;exitX=1;exitY=0.5;exitDx=0;exitDy=0;" edge="1" parent="1" source="2_iJs51o2XsMP_k-3k2y-5" target="izJU0LNRKLPGnyAfgjD8-13">
          <mxGeometry relative="1" as="geometry">
            <mxPoint x="348.5" y="193" as="sourcePoint" />
            <mxPoint x="398.5" y="160" as="targetPoint" />
          </mxGeometry>
        </mxCell>
        <mxCell id="izJU0LNRKLPGnyAfgjD8-18" value="&amp;lt;&amp;lt; include &amp;gt;&amp;gt;" style="text;html=1;align=center;verticalAlign=middle;resizable=0;points=[];autosize=1;strokeColor=none;fillColor=none;fontSize=10;" vertex="1" parent="1">
          <mxGeometry x="343.5" y="170" width="80" height="30" as="geometry" />
        </mxCell>
        <mxCell id="izJU0LNRKLPGnyAfgjD8-19" value="Check User Existence" style="ellipse;whiteSpace=wrap;html=1;" vertex="1" parent="1">
          <mxGeometry x="430" y="534" width="115" height="30" as="geometry" />
        </mxCell>
        <mxCell id="izJU0LNRKLPGnyAfgjD8-20" value="" style="html=1;verticalAlign=bottom;endArrow=open;dashed=1;endSize=8;curved=0;rounded=0;entryX=0;entryY=0;entryDx=0;entryDy=0;exitX=1;exitY=0.5;exitDx=0;exitDy=0;" edge="1" parent="1" source="2_iJs51o2XsMP_k-3k2y-35" target="izJU0LNRKLPGnyAfgjD8-19">
          <mxGeometry relative="1" as="geometry">
            <mxPoint x="355" y="474.5799999999999" as="sourcePoint" />
            <mxPoint x="425" y="474.5799999999999" as="targetPoint" />
          </mxGeometry>
        </mxCell>
        <mxCell id="izJU0LNRKLPGnyAfgjD8-21" value="" style="html=1;verticalAlign=bottom;endArrow=open;dashed=1;endSize=8;curved=0;rounded=0;entryX=0;entryY=0.5;entryDx=0;entryDy=0;exitX=1;exitY=0.5;exitDx=0;exitDy=0;" edge="1" parent="1" source="2_iJs51o2XsMP_k-3k2y-36" target="izJU0LNRKLPGnyAfgjD8-19">
          <mxGeometry relative="1" as="geometry">
            <mxPoint x="354" y="519" as="sourcePoint" />
            <mxPoint x="466" y="582" as="targetPoint" />
          </mxGeometry>
        </mxCell>
        <mxCell id="izJU0LNRKLPGnyAfgjD8-22" value="" style="html=1;verticalAlign=bottom;endArrow=open;dashed=1;endSize=8;curved=0;rounded=0;entryX=0;entryY=1;entryDx=0;entryDy=0;exitX=1;exitY=0.5;exitDx=0;exitDy=0;" edge="1" parent="1" source="2_iJs51o2XsMP_k-3k2y-38" target="izJU0LNRKLPGnyAfgjD8-19">
          <mxGeometry relative="1" as="geometry">
            <mxPoint x="347.5" y="596" as="sourcePoint" />
            <mxPoint x="442.5" y="625" as="targetPoint" />
          </mxGeometry>
        </mxCell>
        <mxCell id="izJU0LNRKLPGnyAfgjD8-23" value="" style="html=1;verticalAlign=bottom;endArrow=open;dashed=1;endSize=8;curved=0;rounded=0;entryX=0;entryY=1;entryDx=0;entryDy=0;exitX=1;exitY=0.5;exitDx=0;exitDy=0;" edge="1" parent="1" source="2_iJs51o2XsMP_k-3k2y-7" target="izJU0LNRKLPGnyAfgjD8-13">
          <mxGeometry relative="1" as="geometry">
            <mxPoint x="365.5" y="258" as="sourcePoint" />
            <mxPoint x="458.5" y="233" as="targetPoint" />
          </mxGeometry>
        </mxCell>
        <mxCell id="izJU0LNRKLPGnyAfgjD8-24" value="&amp;lt;&amp;lt; include &amp;gt;&amp;gt;" style="text;html=1;align=center;verticalAlign=middle;resizable=0;points=[];autosize=1;strokeColor=none;fillColor=none;rotation=-25;fontSize=10;" vertex="1" parent="1">
          <mxGeometry x="350.5" y="223" width="80" height="30" as="geometry" />
        </mxCell>
        <mxCell id="izJU0LNRKLPGnyAfgjD8-36" value="" style="html=1;verticalAlign=bottom;endArrow=open;dashed=1;endSize=8;curved=0;rounded=0;entryX=0.025;entryY=0.323;entryDx=0;entryDy=0;exitX=1;exitY=0.5;exitDx=0;exitDy=0;entryPerimeter=0;" edge="1" parent="1" source="2_iJs51o2XsMP_k-3k2y-8" target="izJU0LNRKLPGnyAfgjD8-2">
          <mxGeometry relative="1" as="geometry">
            <mxPoint x="350" y="-132.14" as="sourcePoint" />
            <mxPoint x="437" y="-103" as="targetPoint" />
          </mxGeometry>
        </mxCell>
        <mxCell id="izJU0LNRKLPGnyAfgjD8-37" value="&amp;lt;&amp;lt; include &amp;gt;&amp;gt;" style="text;html=1;align=center;verticalAlign=middle;resizable=0;points=[];autosize=1;strokeColor=none;fillColor=none;rotation=35;fontSize=10;" vertex="1" parent="1">
          <mxGeometry x="353.5" y="-138" width="80" height="30" as="geometry" />
        </mxCell>
        <mxCell id="izJU0LNRKLPGnyAfgjD8-39" value="&amp;lt;&amp;lt; include &amp;gt;&amp;gt;" style="text;html=1;align=center;verticalAlign=middle;resizable=0;points=[];autosize=1;strokeColor=none;fillColor=none;rotation=30;fontSize=10;" vertex="1" parent="1">
          <mxGeometry x="340" y="-116" width="80" height="30" as="geometry" />
        </mxCell>
        <mxCell id="izJU0LNRKLPGnyAfgjD8-40" value="" style="html=1;verticalAlign=bottom;endArrow=open;dashed=1;endSize=8;curved=0;rounded=0;entryX=0.05;entryY=0.71;entryDx=0;entryDy=0;exitX=1;exitY=0.5;exitDx=0;exitDy=0;entryPerimeter=0;" edge="1" parent="1" source="2_iJs51o2XsMP_k-3k2y-11" target="izJU0LNRKLPGnyAfgjD8-2">
          <mxGeometry relative="1" as="geometry">
            <mxPoint x="365" y="-50" as="sourcePoint" />
            <mxPoint x="461" y="-21" as="targetPoint" />
          </mxGeometry>
        </mxCell>
        <mxCell id="izJU0LNRKLPGnyAfgjD8-41" value="&amp;lt;&amp;lt; include &amp;gt;&amp;gt;" style="text;html=1;align=center;verticalAlign=middle;resizable=0;points=[];autosize=1;strokeColor=none;fillColor=none;rotation=-15;fontSize=10;" vertex="1" parent="1">
          <mxGeometry x="329" y="-60" width="80" height="30" as="geometry" />
        </mxCell>
        <mxCell id="izJU0LNRKLPGnyAfgjD8-43" value="" style="html=1;verticalAlign=bottom;endArrow=open;dashed=1;endSize=8;curved=0;rounded=0;exitX=1;exitY=0.5;exitDx=0;exitDy=0;entryX=0;entryY=0;entryDx=0;entryDy=0;" edge="1" parent="1" source="2_iJs51o2XsMP_k-3k2y-3" target="izJU0LNRKLPGnyAfgjD8-2">
          <mxGeometry relative="1" as="geometry">
            <mxPoint x="355" y="-125" as="sourcePoint" />
            <mxPoint x="501" y="-40" as="targetPoint" />
          </mxGeometry>
        </mxCell>
        <mxCell id="izJU0LNRKLPGnyAfgjD8-44" value="&amp;lt;&amp;lt; include &amp;gt;&amp;gt;" style="text;html=1;align=center;verticalAlign=middle;resizable=0;points=[];autosize=1;strokeColor=none;fillColor=none;rotation=10;fontSize=10;" vertex="1" parent="1">
          <mxGeometry x="329" y="-93" width="80" height="30" as="geometry" />
        </mxCell>
        <mxCell id="izJU0LNRKLPGnyAfgjD8-45" value="&amp;lt;&amp;lt; include &amp;gt;&amp;gt;" style="text;html=1;align=center;verticalAlign=middle;resizable=0;points=[];autosize=1;strokeColor=none;fillColor=none;rotation=35;fontSize=10;" vertex="1" parent="1">
          <mxGeometry x="375" y="-160" width="80" height="30" as="geometry" />
        </mxCell>
        <mxCell id="izJU0LNRKLPGnyAfgjD8-46" value="Validate Data is correct" style="ellipse;whiteSpace=wrap;html=1;" vertex="1" parent="1">
          <mxGeometry x="409" y="-210" width="136" height="30" as="geometry" />
        </mxCell>
        <mxCell id="izJU0LNRKLPGnyAfgjD8-47" value="" style="html=1;verticalAlign=bottom;endArrow=open;dashed=1;endSize=8;curved=0;rounded=0;exitX=1;exitY=0.5;exitDx=0;exitDy=0;entryX=0;entryY=0.5;entryDx=0;entryDy=0;" edge="1" parent="1" source="2_iJs51o2XsMP_k-3k2y-10" target="izJU0LNRKLPGnyAfgjD8-46">
          <mxGeometry relative="1" as="geometry">
            <mxPoint x="232" y="-310" as="sourcePoint" />
            <mxPoint x="393" y="-186" as="targetPoint" />
          </mxGeometry>
        </mxCell>
        <mxCell id="izJU0LNRKLPGnyAfgjD8-48" value="&amp;lt;&amp;lt; include &amp;gt;&amp;gt;" style="text;html=1;align=center;verticalAlign=middle;resizable=0;points=[];autosize=1;strokeColor=none;fillColor=none;rotation=0;fontSize=10;" vertex="1" parent="1">
          <mxGeometry x="325" y="-220" width="80" height="30" as="geometry" />
        </mxCell>
        <mxCell id="izJU0LNRKLPGnyAfgjD8-49" value="" style="html=1;verticalAlign=bottom;endArrow=open;dashed=1;endSize=8;curved=0;rounded=0;exitX=1;exitY=0.5;exitDx=0;exitDy=0;" edge="1" parent="1" source="2_iJs51o2XsMP_k-3k2y-4" target="izJU0LNRKLPGnyAfgjD8-13">
          <mxGeometry relative="1" as="geometry">
            <mxPoint x="383.5" y="178" as="sourcePoint" />
            <mxPoint x="496.5" y="119" as="targetPoint" />
          </mxGeometry>
        </mxCell>
        <mxCell id="izJU0LNRKLPGnyAfgjD8-50" value="&lt;font style=&quot;font-size: 10px;&quot;&gt;&amp;lt;&amp;lt; include &amp;gt;&amp;gt;&lt;/font&gt;" style="text;html=1;align=center;verticalAlign=middle;resizable=0;points=[];autosize=1;strokeColor=none;fillColor=none;rotation=20;" vertex="1" parent="1">
          <mxGeometry x="368.5" y="144" width="80" height="30" as="geometry" />
        </mxCell>
        <mxCell id="izJU0LNRKLPGnyAfgjD8-52" value="Check Vacation Time is not already in a existence vacation" style="ellipse;whiteSpace=wrap;html=1;" vertex="1" parent="1">
          <mxGeometry x="440" y="105" width="340" height="30" as="geometry" />
        </mxCell>
        <mxCell id="izJU0LNRKLPGnyAfgjD8-53" value="" style="html=1;verticalAlign=bottom;endArrow=open;dashed=1;endSize=8;curved=0;rounded=0;exitX=1;exitY=0;exitDx=0;exitDy=0;entryX=0;entryY=0.5;entryDx=0;entryDy=0;" edge="1" parent="1" source="2_iJs51o2XsMP_k-3k2y-4" target="izJU0LNRKLPGnyAfgjD8-52">
          <mxGeometry relative="1" as="geometry">
            <mxPoint x="353.5" y="130" as="sourcePoint" />
            <mxPoint x="451.5" y="165" as="targetPoint" />
          </mxGeometry>
        </mxCell>
        <mxCell id="izJU0LNRKLPGnyAfgjD8-54" value="&lt;font style=&quot;font-size: 10px;&quot;&gt;&amp;lt;&amp;lt; include &amp;gt;&amp;gt;&lt;/font&gt;" style="text;html=1;align=center;verticalAlign=middle;resizable=0;points=[];autosize=1;strokeColor=none;fillColor=none;rotation=-10;" vertex="1" parent="1">
          <mxGeometry x="345" y="105" width="80" height="30" as="geometry" />
        </mxCell>
        <mxCell id="izJU0LNRKLPGnyAfgjD8-55" value="" style="html=1;verticalAlign=bottom;endArrow=open;dashed=1;endSize=8;curved=0;rounded=0;entryX=0.293;entryY=0.921;entryDx=0;entryDy=0;exitX=1;exitY=0.5;exitDx=0;exitDy=0;entryPerimeter=0;" edge="1" parent="1" source="2_iJs51o2XsMP_k-3k2y-9" target="izJU0LNRKLPGnyAfgjD8-13">
          <mxGeometry relative="1" as="geometry">
            <mxPoint x="354" y="283" as="sourcePoint" />
            <mxPoint x="466" y="224" as="targetPoint" />
          </mxGeometry>
        </mxCell>
        <mxCell id="izJU0LNRKLPGnyAfgjD8-56" value="" style="html=1;verticalAlign=bottom;endArrow=open;dashed=1;endSize=8;curved=0;rounded=0;entryX=0.012;entryY=0.743;entryDx=0;entryDy=0;exitX=1;exitY=0.5;exitDx=0;exitDy=0;entryPerimeter=0;" edge="1" parent="1" source="2_iJs51o2XsMP_k-3k2y-37" target="izJU0LNRKLPGnyAfgjD8-19">
          <mxGeometry relative="1" as="geometry">
            <mxPoint x="345" y="620" as="sourcePoint" />
            <mxPoint x="457" y="570" as="targetPoint" />
          </mxGeometry>
        </mxCell>
        <mxCell id="izJU0LNRKLPGnyAfgjD8-57" value="&amp;lt;&amp;lt; include &amp;gt;&amp;gt;" style="text;html=1;align=center;verticalAlign=middle;resizable=0;points=[];autosize=1;strokeColor=none;fillColor=none;rotation=15;fontSize=10;" vertex="1" parent="1">
          <mxGeometry x="343.5" y="511" width="80" height="30" as="geometry" />
        </mxCell>
        <mxCell id="izJU0LNRKLPGnyAfgjD8-58" value="&amp;lt;&amp;lt; include &amp;gt;&amp;gt;" style="text;html=1;align=center;verticalAlign=middle;resizable=0;points=[];autosize=1;strokeColor=none;fillColor=none;rotation=0;fontSize=10;" vertex="1" parent="1">
          <mxGeometry x="335" y="535" width="80" height="30" as="geometry" />
        </mxCell>
        <mxCell id="izJU0LNRKLPGnyAfgjD8-59" value="&amp;lt;&amp;lt; include &amp;gt;&amp;gt;" style="text;html=1;align=center;verticalAlign=middle;resizable=0;points=[];autosize=1;strokeColor=none;fillColor=none;rotation=-25;fontSize=10;" vertex="1" parent="1">
          <mxGeometry x="340" y="565" width="80" height="30" as="geometry" />
        </mxCell>
        <mxCell id="izJU0LNRKLPGnyAfgjD8-61" value="" style="html=1;verticalAlign=bottom;endArrow=open;dashed=1;endSize=8;curved=0;rounded=0;entryX=0.44;entryY=0.019;entryDx=0;entryDy=0;exitX=1;exitY=0.5;exitDx=0;exitDy=0;entryPerimeter=0;" edge="1" parent="1" source="2_iJs51o2XsMP_k-3k2y-43" target="izJU0LNRKLPGnyAfgjD8-19">
          <mxGeometry relative="1" as="geometry">
            <mxPoint x="359" y="448" as="sourcePoint" />
            <mxPoint x="471" y="511" as="targetPoint" />
          </mxGeometry>
        </mxCell>
        <mxCell id="izJU0LNRKLPGnyAfgjD8-62" value="&amp;lt;&amp;lt; include &amp;gt;&amp;gt;" style="text;html=1;align=center;verticalAlign=middle;resizable=0;points=[];autosize=1;strokeColor=none;fillColor=none;rotation=35;fontSize=10;" vertex="1" parent="1">
          <mxGeometry x="375" y="451" width="80" height="30" as="geometry" />
        </mxCell>
        <mxCell id="izJU0LNRKLPGnyAfgjD8-63" value="Check Vacation Existence" style="ellipse;whiteSpace=wrap;html=1;" vertex="1" parent="1">
          <mxGeometry x="490" y="700" width="120" height="40" as="geometry" />
        </mxCell>
        <mxCell id="izJU0LNRKLPGnyAfgjD8-64" value="" style="html=1;verticalAlign=bottom;endArrow=open;dashed=1;endSize=8;curved=0;rounded=0;entryX=0;entryY=0;entryDx=0;entryDy=0;exitX=1;exitY=0.5;exitDx=0;exitDy=0;" edge="1" parent="1" source="2_iJs51o2XsMP_k-3k2y-39" target="izJU0LNRKLPGnyAfgjD8-63">
          <mxGeometry relative="1" as="geometry">
            <mxPoint x="385" y="675" as="sourcePoint" />
            <mxPoint x="497" y="625" as="targetPoint" />
          </mxGeometry>
        </mxCell>
        <mxCell id="izJU0LNRKLPGnyAfgjD8-65" value="" style="html=1;verticalAlign=bottom;endArrow=open;dashed=1;endSize=8;curved=0;rounded=0;entryX=0;entryY=0.5;entryDx=0;entryDy=0;exitX=1;exitY=0.5;exitDx=0;exitDy=0;" edge="1" parent="1" source="2_iJs51o2XsMP_k-3k2y-40" target="izJU0LNRKLPGnyAfgjD8-63">
          <mxGeometry relative="1" as="geometry">
            <mxPoint x="380" y="675" as="sourcePoint" />
            <mxPoint x="518" y="716" as="targetPoint" />
          </mxGeometry>
        </mxCell>
        <mxCell id="izJU0LNRKLPGnyAfgjD8-66" value="" style="html=1;verticalAlign=bottom;endArrow=open;dashed=1;endSize=8;curved=0;rounded=0;entryX=0;entryY=1;entryDx=0;entryDy=0;exitX=1;exitY=0.5;exitDx=0;exitDy=0;" edge="1" parent="1" source="2_iJs51o2XsMP_k-3k2y-42" target="izJU0LNRKLPGnyAfgjD8-63">
          <mxGeometry relative="1" as="geometry">
            <mxPoint x="420.5" y="765" as="sourcePoint" />
            <mxPoint x="558.5" y="806" as="targetPoint" />
          </mxGeometry>
        </mxCell>
        <mxCell id="izJU0LNRKLPGnyAfgjD8-67" value="&amp;lt;&amp;lt; include &amp;gt;&amp;gt;" style="text;html=1;align=center;verticalAlign=middle;resizable=0;points=[];autosize=1;strokeColor=none;fillColor=none;rotation=15;fontSize=10;" vertex="1" parent="1">
          <mxGeometry x="385" y="655" width="80" height="30" as="geometry" />
        </mxCell>
        <mxCell id="izJU0LNRKLPGnyAfgjD8-68" value="&amp;lt;&amp;lt; include &amp;gt;&amp;gt;" style="text;html=1;align=center;verticalAlign=middle;resizable=0;points=[];autosize=1;strokeColor=none;fillColor=none;rotation=-5;fontSize=10;" vertex="1" parent="1">
          <mxGeometry x="400" y="700" width="80" height="30" as="geometry" />
        </mxCell>
        <mxCell id="izJU0LNRKLPGnyAfgjD8-69" value="&amp;lt;&amp;lt; include &amp;gt;&amp;gt;" style="text;html=1;align=center;verticalAlign=middle;resizable=0;points=[];autosize=1;strokeColor=none;fillColor=none;rotation=-20;fontSize=10;" vertex="1" parent="1">
          <mxGeometry x="400" y="735" width="80" height="30" as="geometry" />
        </mxCell>
      </root>
    </mxGraphModel>
  </diagram>
</mxfile>
